<?xml version="1.0" standalone="no"?>
<!DOCTYPE svg PUBLIC "-//W3C//DTD SVG 20010904//EN"
 "http://www.w3.org/TR/2001/REC-SVG-20010904/DTD/svg10.dtd">
<svg version="1.0" xmlns="http://www.w3.org/2000/svg"
 width="76.000000pt" height="76.000000pt" viewBox="0 0 76.000000 76.000000"
 preserveAspectRatio="xMidYMid meet">
<metadata>
Created by potrace 1.11, written by Peter Selinger 2001-2013
</metadata>
<g transform="translate(0.000000,76.000000) scale(0.100000,-0.100000)"
fill="#000000" stroke="none">
<path d="M121 747 c-46 -15 -94 -65 -109 -114 -16 -55 -16 -451 0 -506 16 -52
63 -99 115 -115 55 -16 451 -16 506 0 52 16 99 63 115 115 16 55 16 451 0 506
-16 52 -63 99 -115 115 -51 15 -463 15 -512 -1z m151 -289 c30 -73 53 -136 51
-141 -2 -4 -26 -7 -52 -7 l-49 0 -56 131 c-31 72 -56 135 -56 140 0 5 24 9 53
9 l53 0 56 -132z m187 65 c15 -35 30 -65 33 -68 2 -3 17 26 32 65 l28 70 54 0
c30 0 54 -3 53 -7 0 -5 -26 -66 -58 -138 l-58 -130 -45 -3 -45 -3 -35 73 -35
73 -26 -50 -25 -50 -23 50 c-27 61 -27 57 4 128 l26 58 46 -3 46 -3 28 -62z
m-329 -268 c0 -8 -7 -15 -15 -15 -8 0 -15 7 -15 15 0 8 7 15 15 15 8 0 15 -7
15 -15z m268 -3 c2 -7 -6 -12 -17 -12 -21 0 -27 11 -14 24 9 9 26 2 31 -12z
m-268 -77 c0 -42 -3 -55 -15 -55 -12 0 -15 13 -15 55 0 42 3 55 15 55 12 0 15
-13 15 -55z m116 31 c9 -38 1 -81 -16 -81 -10 0 -16 12 -18 38 -5 53 -32 51
-32 -3 0 -29 -4 -40 -15 -40 -12 0 -15 13 -15 55 l0 55 45 0 c39 0 45 -3 51
-24z m48 -7 l13 -31 11 31 c10 27 16 31 47 31 l36 0 -3 -52 c-2 -39 -7 -53
-18 -53 -11 0 -16 13 -18 45 l-4 45 -18 -45 c-29 -73 -53 -62 -84 38 -12 36
23 27 38 -9z m213 2 c6 -14 9 -30 5 -35 -4 -6 -7 -15 -7 -20 0 -19 -34 -30
-62 -20 -22 7 -29 17 -31 42 -4 43 13 64 52 60 21 -2 34 -11 43 -27z m43 9 c0
-11 4 -20 9 -20 5 0 11 9 14 20 8 29 34 24 42 -7 l7 -28 10 28 c5 15 16 27 24
27 17 0 17 -3 0 -60 -16 -53 -40 -63 -54 -23 l-10 28 -11 -27 c-15 -40 -36
-34 -50 13 -7 23 -15 47 -18 55 -3 9 2 14 16 14 14 0 21 -6 21 -20z"/>
<path d="M448 193 c6 -2 18 -2 25 0 6 3 1 5 -13 5 -14 0 -19 -2 -12 -5z"/>
<path d="M458 153 c6 -2 18 -2 25 0 6 3 1 5 -13 5 -14 0 -19 -2 -12 -5z"/>
</g>
</svg>
